<svg id="logosandtypes_com" data-name="logosandtypes com" xmlns="http://www.w3.org/2000/svg" viewBox="0 0 150 150"><defs><style>.cls-1{fill:none;}.cls-2{fill:#fec338;}.cls-3{fill:#0774cc;}.cls-4{fill:#7344bc;}.cls-5{fill:#f32f42;}.cls-6{fill:#3cb065;}</style></defs><path class="cls-1" d="M0,.2H150v150H0Z" transform="translate(0 -0.2)"/><path class="cls-2" d="M95,73.6c-.32-7.17,2-18.53,7.63-23.06,4-3.3,9.11-2.65,11.92,1.67,3.92,6,24.81,40.09,31.74,50.78,3,4.68,2,10.57-4.25,12.9-15.52,6.12-31.95,3.19-40-12.45-3.74-6.76-5.33-14.17-6.43-21.71A32,32,0,0,1,95,73.6Z" transform="translate(0 -0.2)"/><path class="cls-3" d="M31.88,101.37C33.85,65,59.75,35.36,95,27c1.17-.24,3-.49,3.34,1,.28,1.29-1.1,1.86-2,2.32-28.05,11.9-42.38,41.73-42.8,71.06-.07,4-1.18,7.64-4.29,10.32-3.35,2.89-7.23,2.93-11.09,1.24C33.45,111,31.56,106.14,31.88,101.37Z" transform="translate(0 -0.2)"/><path class="cls-4" d="M56.1,104.6c0-12.85,1.67-25.42,6.56-37.41Q73.6,40.37,100.55,29.72c1.39-.55,2.82-1,4.23-1.52a1.77,1.77,0,0,1,2.44.73c.62,1.2-.11,2-1.08,2.52C85.8,42.11,75.56,63.9,75.35,86.27a108.77,108.77,0,0,0,2,23.48c2.68,15.62-20.09,18.45-21.21,1.88C56,109.3,56.1,106.94,56.1,104.6Z" transform="translate(0 -0.2)"/><path class="cls-5" d="M77.46,87.9c-.64-23.18,9.86-46.44,31.7-55.37a1.63,1.63,0,0,1,2,.56,1.57,1.57,0,0,1-.37,2c-1,1-2,2-3,3C90.77,53.7,89,79.82,98,100.16c1.35,3.09,3.08,6,4.07,9.27,2.23,7.4-3.22,14.4-10.49,13.93-10-.72-11.62-12.27-12.86-20.49C77.88,97.59,77.2,92.29,77.46,87.9Z" transform="translate(0 -0.2)"/><path class="cls-6" d="M17.3,33.58a174.19,174.19,0,0,1,29.75,1.66,24.85,24.85,0,0,1,6.79,1.68c4,1.84,4.84,5.78,1.74,8.88a101.94,101.94,0,0,0-11,12.75A61.15,61.15,0,0,0,38.09,69.7c-.62,1.43-1.3,2.72-3.11,2.85s-2.77-1.19-3.56-2.65C24.47,57,14,46.67,2.64,37.61c-.89-.71-2-1.35-1.56-2.69.46-1.53,1.87-1.33,3.06-1.33C8.64,33.56,13.14,33.58,17.3,33.58Z" transform="translate(0 -0.2)"/></svg>